<mxfile host="app.diagrams.net" modified="2024-05-27T16:28:50.445Z" agent="Mozilla/5.0 (Windows NT 10.0; Win64; x64) AppleWebKit/537.36 (KHTML, like Gecko) Chrome/125.0.0.0 Safari/537.36" etag="bVOxCaCWqr1zVvAD0Hbv" version="24.4.9" type="github">
  <diagram name="第 1 页" id="_G-A4NlPf-k9DuS4kRbf">
    <mxGraphModel dx="1434" dy="790" grid="1" gridSize="10" guides="1" tooltips="1" connect="1" arrows="1" fold="1" page="1" pageScale="1" pageWidth="827" pageHeight="1169" math="0" shadow="0">
      <root>
        <mxCell id="0" />
        <mxCell id="1" parent="0" />
        <mxCell id="UCGF50sVtH6Heyg3Gn5o-11" style="edgeStyle=orthogonalEdgeStyle;rounded=0;orthogonalLoop=1;jettySize=auto;html=1;entryX=0.5;entryY=0;entryDx=0;entryDy=0;fontSize=14;" edge="1" parent="1" source="UCGF50sVtH6Heyg3Gn5o-1" target="UCGF50sVtH6Heyg3Gn5o-2">
          <mxGeometry relative="1" as="geometry" />
        </mxCell>
        <mxCell id="UCGF50sVtH6Heyg3Gn5o-1" value="新增管理员" style="whiteSpace=wrap;html=1;fontSize=14;" vertex="1" parent="1">
          <mxGeometry x="90" y="30" width="120" height="60" as="geometry" />
        </mxCell>
        <mxCell id="UCGF50sVtH6Heyg3Gn5o-13" style="edgeStyle=orthogonalEdgeStyle;rounded=0;orthogonalLoop=1;jettySize=auto;html=1;entryX=0.5;entryY=0;entryDx=0;entryDy=0;fontSize=14;" edge="1" parent="1" source="UCGF50sVtH6Heyg3Gn5o-2" target="UCGF50sVtH6Heyg3Gn5o-3">
          <mxGeometry relative="1" as="geometry" />
        </mxCell>
        <mxCell id="UCGF50sVtH6Heyg3Gn5o-2" value="录入管理员基本信息" style="whiteSpace=wrap;html=1;fontSize=14;" vertex="1" parent="1">
          <mxGeometry x="90" y="120" width="120" height="60" as="geometry" />
        </mxCell>
        <mxCell id="UCGF50sVtH6Heyg3Gn5o-14" value="" style="edgeStyle=orthogonalEdgeStyle;rounded=0;orthogonalLoop=1;jettySize=auto;html=1;fontSize=14;" edge="1" parent="1" source="UCGF50sVtH6Heyg3Gn5o-3" target="UCGF50sVtH6Heyg3Gn5o-5">
          <mxGeometry relative="1" as="geometry" />
        </mxCell>
        <mxCell id="UCGF50sVtH6Heyg3Gn5o-15" value="否" style="edgeLabel;html=1;align=center;verticalAlign=middle;resizable=0;points=[];fontSize=14;" vertex="1" connectable="0" parent="UCGF50sVtH6Heyg3Gn5o-14">
          <mxGeometry x="-0.1644" y="-1" relative="1" as="geometry">
            <mxPoint as="offset" />
          </mxGeometry>
        </mxCell>
        <mxCell id="UCGF50sVtH6Heyg3Gn5o-16" value="" style="edgeStyle=orthogonalEdgeStyle;rounded=0;orthogonalLoop=1;jettySize=auto;html=1;fontSize=14;" edge="1" parent="1" source="UCGF50sVtH6Heyg3Gn5o-3" target="UCGF50sVtH6Heyg3Gn5o-4">
          <mxGeometry relative="1" as="geometry" />
        </mxCell>
        <mxCell id="UCGF50sVtH6Heyg3Gn5o-17" value="是" style="edgeLabel;html=1;align=center;verticalAlign=middle;resizable=0;points=[];fontSize=14;" vertex="1" connectable="0" parent="UCGF50sVtH6Heyg3Gn5o-16">
          <mxGeometry x="-0.181" y="-2" relative="1" as="geometry">
            <mxPoint as="offset" />
          </mxGeometry>
        </mxCell>
        <mxCell id="UCGF50sVtH6Heyg3Gn5o-3" value="验证信息是否完整" style="rhombus;whiteSpace=wrap;html=1;fontSize=14;" vertex="1" parent="1">
          <mxGeometry x="90" y="220" width="120" height="60" as="geometry" />
        </mxCell>
        <mxCell id="UCGF50sVtH6Heyg3Gn5o-18" style="edgeStyle=orthogonalEdgeStyle;rounded=0;orthogonalLoop=1;jettySize=auto;html=1;fontSize=14;" edge="1" parent="1" source="UCGF50sVtH6Heyg3Gn5o-4" target="UCGF50sVtH6Heyg3Gn5o-5">
          <mxGeometry relative="1" as="geometry" />
        </mxCell>
        <mxCell id="UCGF50sVtH6Heyg3Gn5o-19" value="否" style="edgeLabel;html=1;align=center;verticalAlign=middle;resizable=0;points=[];fontSize=14;" vertex="1" connectable="0" parent="UCGF50sVtH6Heyg3Gn5o-18">
          <mxGeometry x="-0.4317" y="-1" relative="1" as="geometry">
            <mxPoint as="offset" />
          </mxGeometry>
        </mxCell>
        <mxCell id="UCGF50sVtH6Heyg3Gn5o-22" style="edgeStyle=orthogonalEdgeStyle;rounded=0;orthogonalLoop=1;jettySize=auto;html=1;entryX=0.5;entryY=0;entryDx=0;entryDy=0;fontSize=14;" edge="1" parent="1" source="UCGF50sVtH6Heyg3Gn5o-4" target="UCGF50sVtH6Heyg3Gn5o-6">
          <mxGeometry relative="1" as="geometry" />
        </mxCell>
        <mxCell id="UCGF50sVtH6Heyg3Gn5o-24" value="是" style="edgeLabel;html=1;align=center;verticalAlign=middle;resizable=0;points=[];fontSize=14;" vertex="1" connectable="0" parent="UCGF50sVtH6Heyg3Gn5o-22">
          <mxGeometry x="-0.2286" relative="1" as="geometry">
            <mxPoint as="offset" />
          </mxGeometry>
        </mxCell>
        <mxCell id="UCGF50sVtH6Heyg3Gn5o-4" value="各字段字符是否正确" style="rhombus;whiteSpace=wrap;html=1;fontSize=14;" vertex="1" parent="1">
          <mxGeometry x="90" y="320" width="120" height="60" as="geometry" />
        </mxCell>
        <mxCell id="UCGF50sVtH6Heyg3Gn5o-5" value="返回失败信息" style="whiteSpace=wrap;html=1;fontSize=14;" vertex="1" parent="1">
          <mxGeometry x="294" y="220" width="120" height="60" as="geometry" />
        </mxCell>
        <mxCell id="UCGF50sVtH6Heyg3Gn5o-25" value="" style="edgeStyle=orthogonalEdgeStyle;rounded=0;orthogonalLoop=1;jettySize=auto;html=1;fontSize=14;" edge="1" parent="1" source="UCGF50sVtH6Heyg3Gn5o-6" target="UCGF50sVtH6Heyg3Gn5o-7">
          <mxGeometry relative="1" as="geometry" />
        </mxCell>
        <mxCell id="UCGF50sVtH6Heyg3Gn5o-6" value="生成数据库插入语句" style="whiteSpace=wrap;html=1;fontSize=14;" vertex="1" parent="1">
          <mxGeometry x="90" y="420" width="120" height="60" as="geometry" />
        </mxCell>
        <mxCell id="UCGF50sVtH6Heyg3Gn5o-27" value="" style="edgeStyle=orthogonalEdgeStyle;rounded=0;orthogonalLoop=1;jettySize=auto;html=1;fontSize=14;" edge="1" parent="1" source="UCGF50sVtH6Heyg3Gn5o-7" target="UCGF50sVtH6Heyg3Gn5o-8">
          <mxGeometry relative="1" as="geometry" />
        </mxCell>
        <mxCell id="UCGF50sVtH6Heyg3Gn5o-7" value="插入数据库中" style="whiteSpace=wrap;html=1;fontSize=14;" vertex="1" parent="1">
          <mxGeometry x="90" y="510" width="120" height="60" as="geometry" />
        </mxCell>
        <mxCell id="UCGF50sVtH6Heyg3Gn5o-28" value="" style="edgeStyle=orthogonalEdgeStyle;rounded=0;orthogonalLoop=1;jettySize=auto;html=1;fontSize=14;" edge="1" parent="1" source="UCGF50sVtH6Heyg3Gn5o-8" target="UCGF50sVtH6Heyg3Gn5o-9">
          <mxGeometry relative="1" as="geometry" />
        </mxCell>
        <mxCell id="UCGF50sVtH6Heyg3Gn5o-29" value="是" style="edgeLabel;html=1;align=center;verticalAlign=middle;resizable=0;points=[];fontSize=14;" vertex="1" connectable="0" parent="UCGF50sVtH6Heyg3Gn5o-28">
          <mxGeometry x="-0.2048" y="1" relative="1" as="geometry">
            <mxPoint as="offset" />
          </mxGeometry>
        </mxCell>
        <mxCell id="UCGF50sVtH6Heyg3Gn5o-30" style="edgeStyle=orthogonalEdgeStyle;rounded=0;orthogonalLoop=1;jettySize=auto;html=1;entryX=0.5;entryY=1;entryDx=0;entryDy=0;fontSize=14;" edge="1" parent="1" source="UCGF50sVtH6Heyg3Gn5o-8" target="UCGF50sVtH6Heyg3Gn5o-5">
          <mxGeometry relative="1" as="geometry" />
        </mxCell>
        <mxCell id="UCGF50sVtH6Heyg3Gn5o-31" value="否" style="edgeLabel;html=1;align=center;verticalAlign=middle;resizable=0;points=[];fontSize=14;" vertex="1" connectable="0" parent="UCGF50sVtH6Heyg3Gn5o-30">
          <mxGeometry x="-0.7191" relative="1" as="geometry">
            <mxPoint as="offset" />
          </mxGeometry>
        </mxCell>
        <mxCell id="UCGF50sVtH6Heyg3Gn5o-8" value="返回是否成功信息" style="rhombus;whiteSpace=wrap;html=1;fontSize=14;" vertex="1" parent="1">
          <mxGeometry x="90" y="600" width="120" height="60" as="geometry" />
        </mxCell>
        <mxCell id="UCGF50sVtH6Heyg3Gn5o-9" value="结束操作" style="whiteSpace=wrap;html=1;fontSize=14;" vertex="1" parent="1">
          <mxGeometry x="90" y="700" width="120" height="60" as="geometry" />
        </mxCell>
      </root>
    </mxGraphModel>
  </diagram>
</mxfile>
